<svg width="512" height="512" viewBox="66 66 380 380" fill="none" xmlns="http://www.w3.org/2000/svg">
  <path d="M66 132C66 95.549 95.549 66 132 66H238C249.046 66 258 74.954 258 86V224C258 235.046 249.046 244 238 244H132C95.549 244 66 214.451 66 178V132Z" fill="#FAECC9"/>
  <path d="M278 86C278 74.954 286.954 66 298 66H380C416.451 66 446 95.549 446 132V178C446 214.451 416.451 244 380 244H298C286.954 244 278 235.046 278 224V86Z" fill="#F5A623"/>
  <path d="M66 334C66 297.549 95.549 268 132 268H238C249.046 268 258 276.954 258 288V426C258 437.046 249.046 446 238 446H132C95.549 446 66 416.451 66 380V334Z" fill="#FAECC9"/>
  <path d="M278 288C278 276.954 286.954 268 298 268H380C416.451 268 446 297.549 446 334V380C446 416.451 416.451 446 380 446H298C286.954 446 278 437.046 278 426V288Z" fill="#F5A623"/>
</svg>
